<svg width="40" height="40" viewBox="0 0 40 40" fill="none" xmlns="http://www.w3.org/2000/svg">
	<path d="M15.7048 4.52084C18.3715 2.93751 21.7048 2.93751 24.3715 4.52084C27.0382 6.10418 28.6048 9.02084 28.4882 12.1042V12.4875C30.5882 12.4875 32.8048 13.9542 33.5715 17.5208L34.8548 27.5042C35.8065 34.0208 32.0215 36.6708 26.9382 36.6708H13.1215C8.02317 36.6708 4.1215 34.8375 5.1715 27.5042L6.4715 17.5208C6.6715 16.0375 7.38817 14.6542 8.50483 13.6375C9.3565 12.8892 10.4548 12.4875 11.5882 12.4875V12.1042C11.4548 9.02084 13.0398 6.10418 15.7048 4.52084ZM24.8215 17.8542C24.0065 17.8542 23.3382 18.5042 23.3382 19.3208C23.3382 20.1208 24.0065 20.7875 24.8215 20.7875C25.2048 20.7875 25.5882 20.6375 25.8548 20.3542C26.1382 20.0875 26.2882 19.7042 26.2882 19.3208C26.2882 18.5042 25.6215 17.8542 24.8215 17.8542ZM15.1548 17.8542C14.3382 17.8542 13.6715 18.5042 13.6715 19.3208C13.6715 20.1208 14.3382 20.7875 15.1548 20.7875C15.9715 20.7875 16.6215 20.1208 16.6215 19.3208C16.6215 18.5042 15.9715 17.8542 15.1548 17.8542ZM20.0048 6.23751C16.7548 6.23751 14.1215 8.87084 14.1215 12.1042V12.4725H25.9048V12.1042C25.9048 8.87084 23.2715 6.23751 20.0048 6.23751Z" fill="white" />
</svg>