<svg width="15" height="15" viewBox="0 0 15 15" fill="none" xmlns="http://www.w3.org/2000/svg">
	<path d="M12.0425 9.22546C11.8562 9.40043 11.7702 9.65868 11.8139 9.90434L12.451 13.3477C12.5019 13.6416 12.3801 13.9349 12.1285 14.1036C11.8848 14.2785 11.5623 14.2995 11.29 14.1595L8.1159 12.5428C8.00051 12.4869 7.87868 12.4512 7.75756 12.4512H7.56335C7.49168 12.4582 7.4279 12.4869 7.36985 12.5142L4.19501 14.1386C4.03735 14.2155 3.85818 14.2435 3.68618 14.2155C3.25618 14.1316 2.9774 13.7389 3.04835 13.326L3.68618 9.88264C3.72918 9.63139 3.64318 9.37944 3.45756 9.19747L0.86968 6.74792C0.65468 6.53796 0.575847 6.23632 0.676897 5.95707C0.770063 5.68342 1.01301 5.48046 1.31401 5.43217L4.87585 4.92756C5.14818 4.89957 5.38468 4.7393 5.50651 4.50134L7.07601 1.35893C7.11185 1.28894 7.16201 1.22525 7.22006 1.16996L7.28385 1.12097C7.31251 1.08528 7.35551 1.05798 7.39923 1.02999L7.47735 1.00199L7.59918 0.953003H7.9009C8.17323 0.980998 8.40973 1.14127 8.53156 1.37222L10.1218 4.50134C10.2365 4.7323 10.4587 4.88627 10.7167 4.92756L14.2785 5.43217C14.5795 5.47416 14.8311 5.67712 14.9307 5.95707C15.0238 6.23632 14.945 6.54496 14.7228 6.74792L12.0425 9.22546Z" fill="#FFC936" />
</svg>